<svg viewBox="-960 -482.5 1920 965" width="1920" height="965" style="background-color: rgb(255, 255, 255);" xmlns="http://www.w3.org/2000/svg"><path d="M565.243509078547,-154.62558120563818L565.243509078547,-75.25580332183785M565.243509078547,-75.25580332183785L545.5499561041122,-69.34104099660787M565.243509078547,-75.25580332183785L581.630561253679,-68.14758862048512M545.5499561041122,-148.71081888040817L545.5499561041122,-69.34104099660787M545.5499561041122,-69.34104099660787L561.9370082792442,-62.232826295255116" style="fill:none;stroke:rgb(0,0,0);stroke-width:1;stroke-linecap:round"></path><path d="M561.9370082792443,-62.232826295255144L545.5499561041123,-69.3410409966079L565.243509078547,-75.25580332183785zM581.630561253679,-68.14758862048512L565.243509078547,-75.25580332183785L565.243509078547,-154.62558120563818zM581.630561253679,-68.14758862048512L561.9370082792443,-62.232826295255144L565.243509078547,-75.25580332183785z" style="fill:rgb(240,240,240); fill-opacity: 0.61"></path><path d="M561.9370082792442,-62.232826295255116L581.630561253679,-68.14758862048512M581.630561253679,-147.51736650428543L581.630561253679,-68.14758862048512" style="fill:none;stroke:rgb(0,0,0);stroke-width:1;stroke-linecap:round"></path><path d="M565.243509078547,-75.25580332183785L545.5499561041123,-69.3410409966079L545.5499561041123,-148.7108188804082zM565.243509078547,-154.62558120563818L565.243509078547,-75.25580332183785L545.5499561041123,-148.7108188804082z" style="fill:rgb(240,240,240); fill-opacity: 0.61"></path><path d="M565.243509078547,-154.62558120563818L545.5499561041122,-148.71081888040817M565.243509078547,-154.62558120563818L581.630561253679,-147.51736650428543" style="fill:none;stroke:rgb(0,0,0);stroke-width:1;stroke-linecap:round"></path><path d="M581.630561253679,-147.51736650428546L581.630561253679,-68.14758862048512L565.243509078547,-154.62558120563818z" style="fill:rgb(240,240,240); fill-opacity: 0.61"></path><path d="M561.9370082792442,-141.60260417905545L561.9370082792442,-62.232826295255116" style="fill:none;stroke:rgb(0,0,0);stroke-width:1;stroke-linecap:round"></path><path d="M561.9370082792443,-62.232826295255144L581.630561253679,-68.14758862048512L581.630561253679,-147.51736650428546zM545.5499561041123,-69.3410409966079L561.9370082792443,-62.232826295255144L561.9370082792443,-141.60260417905545z" style="fill:rgb(240,240,240); fill-opacity: 0.61"></path><path d="M460.31458275133593,-225.8131556667819L460.31458275133593,58.96048526445033M460.31458275133593,58.96048526445033L440.6210297769011,64.87524758968033M460.31458275133593,58.96048526445033L476.701634926468,66.06869996580309" style="fill:none;stroke:rgb(0,0,0);stroke-width:1;stroke-linecap:round"></path><path d="M545.5499561041123,-148.7108188804082L545.5499561041123,-69.3410409966079L561.9370082792443,-141.60260417905545zM581.630561253679,-147.51736650428546L565.243509078547,-154.62558120563818L545.5499561041123,-148.7108188804082z" style="fill:rgb(240,240,240); fill-opacity: 0.61"></path><path d="M545.5499561041122,-148.71081888040817L561.9370082792442,-141.60260417905545" style="fill:none;stroke:rgb(0,0,0);stroke-width:1;stroke-linecap:round"></path><path d="M561.9370082792443,-141.60260417905545L561.9370082792443,-62.232826295255144L581.630561253679,-147.51736650428546z" style="fill:rgb(240,240,240); fill-opacity: 0.61"></path><path d="M561.9370082792442,-141.60260417905545L581.630561253679,-147.51736650428543" style="fill:none;stroke:rgb(0,0,0);stroke-width:1;stroke-linecap:round"></path><path d="M561.9370082792443,-141.60260417905545L581.630561253679,-147.51736650428546L545.5499561041123,-148.7108188804082z" style="fill:rgb(240,240,240); fill-opacity: 0.61"></path><path d="M440.6210297769011,-219.8983933415519L440.6210297769011,64.87524758968033M440.6210297769011,64.87524758968033L457.00808195203314,71.98346229103309" style="fill:none;stroke:rgb(0,0,0);stroke-width:1;stroke-linecap:round"></path><path d="M528.1116172473809,-90.98409361490032L522.4905119695422,-87.46784014118894L550.9023031051725,-104.61850277083826z" style="fill:rgb(0,0,0)"></path><path d="M457.0080819520332,71.98346229103309L440.62102977690114,64.87524758968033L460.31458275133593,58.960485264450334z" style="fill:rgb(240,240,240); fill-opacity: 0.61"></path><path d="M519.0164779892134,-104.56391209342071L525.964545949871,-101.55004734849163L550.9023031051725,-104.61850277083826z" style="fill:rgb(0,0,0)"></path><path d="M476.701634926468,66.06869996580309L457.0080819520332,71.98346229103309L460.31458275133593,58.960485264450334z" style="fill:rgb(240,240,240); fill-opacity: 0.61"></path><path d="M457.00808195203314,71.98346229103309L476.701634926468,66.06869996580309M476.701634926468,-218.70494096542916L476.701634926468,66.06869996580309" style="fill:none;stroke:rgb(0,0,0);stroke-width:1;stroke-linecap:round"></path><path d="M516.8694066917035,-95.86062940019784L522.4905119695422,-87.46784014118894L522.4905119695422,-96.0853045196399zM525.964545949871,-101.55004734849163L528.1116172473809,-90.98409361490032L550.9023031051725,-104.61850277083826zM519.0164779892134,-104.56391209342071L516.8694066917035,-95.86062940019784L522.4905119695422,-96.0853045196399z" style="fill:rgb(0,0,0)"></path><path d="M471.3492879254076,-80.72554766748283L522.4905119695422,-96.08530451963988" style="fill:none;stroke:rgb(0,0,0);stroke-width:1;stroke-linecap:round"></path><path d="M522.4905119695422,-87.46784014118894L528.1116172473809,-90.98409361490032L522.4905119695422,-96.0853045196399zM525.964545949871,-101.55004734849163L519.0164779892134,-104.56391209342071L522.4905119695422,-96.0853045196399zM528.1116172473809,-90.98409361490032L525.964545949871,-101.55004734849163L522.4905119695422,-96.0853045196399z" style="fill:rgb(0,0,0)"></path><path d="M457.00808195203314,-212.79017864019914L457.00808195203314,71.98346229103309" style="fill:none;stroke:rgb(0,0,0);stroke-width:1;stroke-linecap:round"></path><path d="M476.701634926468,66.06869996580309L460.31458275133593,58.960485264450334L460.31458275133593,-225.8131556667819zM460.31458275133593,58.960485264450334L440.62102977690114,64.87524758968033L440.62102977690114,-219.8983933415519zM457.0080819520332,71.98346229103309L476.701634926468,66.06869996580309L476.701634926468,-218.70494096542916zM440.62102977690114,64.87524758968033L457.0080819520332,71.98346229103309L457.0080819520332,-212.79017864019914zM460.31458275133593,-225.8131556667819L460.31458275133593,58.960485264450334L440.62102977690114,-219.8983933415519zM476.701634926468,-218.70494096542916L476.701634926468,66.06869996580309L460.31458275133593,-225.8131556667819z" style="fill:rgb(240,240,240); fill-opacity: 0.61"></path><path d="M316.6684845286405,-115.51773462048789L316.6684845286405,-7.4376952019678635M316.6684845286405,-7.4376952019678635L218.20071694690677,22.13611723797128M316.6684845286405,-7.4376952019678635L390.7963305004393,24.71675447483044" style="fill:none;stroke:rgb(0,0,0);stroke-width:1;stroke-linecap:round"></path><path d="M440.62102977690114,-219.8983933415519L440.62102977690114,64.87524758968033L457.0080819520332,-212.79017864019914z" style="fill:rgb(240,240,240); fill-opacity: 0.61"></path><path d="M423.18269092016976,-59.46973655232805L417.56158564233107,-55.95348307861668L445.9733767779614,-73.10414570826599zM414.0875516620023,-73.04955503084845L421.0356196226599,-70.03569028591936L445.9733767779614,-73.10414570826599zM411.94048036449243,-64.34627233762556L417.56158564233107,-55.95348307861668L417.56158564233107,-64.57094745706763zM421.0356196226599,-70.03569028591936L423.18269092016976,-59.46973655232805L445.9733767779614,-73.10414570826599zM414.0875516620023,-73.04955503084845L411.94048036449243,-64.34627233762556L417.56158564233107,-64.57094745706763z" style="fill:rgb(0,0,0)"></path><path d="M457.0080819520332,-212.79017864019914L457.0080819520332,71.98346229103309L476.701634926468,-218.70494096542916z" style="fill:rgb(240,240,240); fill-opacity: 0.61"></path><path d="M366.42036159819656,-49.21119060491059L417.5615856423311,-64.57094745706763" style="fill:none;stroke:rgb(0,0,0);stroke-width:1;stroke-linecap:round"></path><path d="M417.56158564233107,-55.95348307861668L423.18269092016976,-59.46973655232805L417.56158564233107,-64.57094745706763zM421.0356196226599,-70.03569028591936L414.0875516620023,-73.04955503084845L417.56158564233107,-64.57094745706763zM423.18269092016976,-59.46973655232805L421.0356196226599,-70.03569028591936L417.56158564233107,-64.57094745706763z" style="fill:rgb(0,0,0)"></path><path d="M460.31458275133593,-225.8131556667819L440.6210297769011,-219.8983933415519M460.31458275133593,-225.8131556667819L476.701634926468,-218.70494096542916" style="fill:none;stroke:rgb(0,0,0);stroke-width:1;stroke-linecap:round"></path><path d="M476.701634926468,-218.70494096542916L460.31458275133593,-225.8131556667819L440.62102977690114,-219.8983933415519z" style="fill:rgb(240,240,240); fill-opacity: 0.61"></path><path d="M440.6210297769011,-219.8983933415519L457.00808195203314,-212.79017864019914M457.00808195203314,-212.79017864019914L476.701634926468,-218.70494096542916" style="fill:none;stroke:rgb(0,0,0);stroke-width:1;stroke-linecap:round"></path><path d="M390.79633050043924,24.716754474830434L316.6684845286405,-7.4376952019678635L316.6684845286405,-115.51773462048791zM457.0080819520332,-212.79017864019914L476.701634926468,-218.70494096542916L440.62102977690114,-219.8983933415519z" style="fill:rgb(240,240,240); fill-opacity: 0.61"></path><path d="M316.6684845286405,-115.51773462048789L218.20071694690677,-85.94392218054877M316.6684845286405,-115.51773462048789L390.7963305004393,-83.36328494368959" style="fill:none;stroke:rgb(0,0,0);stroke-width:1;stroke-linecap:round"></path><path d="M316.6684845286405,-115.51773462048791L316.6684845286405,-7.4376952019678635L218.20071694690677,-85.94392218054877zM316.6684845286405,-7.4376952019678635L218.20071694690677,22.136117237971273L218.20071694690677,-85.94392218054877z" style="fill:rgb(240,240,240); fill-opacity: 0.61"></path><path d="M218.20071694690677,-85.94392218054877L218.20071694690677,22.13611723797128M218.20071694690677,22.13611723797128L292.3285629187056,54.29056691476958" style="fill:none;stroke:rgb(0,0,0);stroke-width:1;stroke-linecap:round"></path><path d="M292.32856291870553,54.29056691476958L218.20071694690677,22.136117237971273L316.6684845286405,-7.4376952019678635zM390.79633050043924,24.716754474830434L292.32856291870553,54.29056691476958L316.6684845286405,-7.4376952019678635z" style="fill:rgb(240,240,240); fill-opacity: 0.61"></path><path d="M292.3285629187056,54.29056691476958L390.7963305004393,24.71675447483044M390.7963305004393,-83.36328494368959L390.7963305004393,24.71675447483044" style="fill:none;stroke:rgb(0,0,0);stroke-width:1;stroke-linecap:round"></path><path d="M390.79633050043924,-83.36328494368962L390.79633050043924,24.716754474830434L316.6684845286405,-115.51773462048791zM390.79633050043924,-83.36328494368962L316.6684845286405,-115.51773462048791L218.20071694690677,-85.94392218054877z" style="fill:rgb(240,240,240); fill-opacity: 0.61"></path><path d="M218.20071694690677,-85.94392218054877L292.3285629187056,-53.78947250375046" style="fill:none;stroke:rgb(0,0,0);stroke-width:1;stroke-linecap:round"></path><path d="M292.32856291870553,54.29056691476958L390.79633050043924,24.716754474830434L390.79633050043924,-83.36328494368962z" style="fill:rgb(240,240,240); fill-opacity: 0.61"></path><path d="M292.3285629187056,-53.78947250375046L390.7963305004393,-83.36328494368959" style="fill:none;stroke:rgb(0,0,0);stroke-width:1;stroke-linecap:round"></path><path d="M218.20071694690677,-85.94392218054877L218.20071694690677,22.136117237971273L292.32856291870553,-53.78947250375046z" style="fill:rgb(240,240,240); fill-opacity: 0.61"></path><path d="M131.97971068002164,-62.208943597364915L131.97971068002164,48.745249513540706M131.97971068002164,48.745249513540706L53.20549878228231,72.40429881446066M131.97971068002164,48.745249513540706L208.07882556840008,81.75477687871151M178.07985002848406,33.56953283819286L268.1666943098286,16.92600572250569M178.07985002848406,48.717136732985566L268.1666943098286,16.92600572250569M188.46899546547772,53.223638301449334L268.1666943098286,16.92600572250569M188.46899546547772,38.076034406656625L268.1666943098286,16.92600572250569" style="fill:none;stroke:rgb(0,0,0);stroke-width:1;stroke-linecap:round"></path><path d="M218.20071694690677,22.136117237971273L292.32856291870553,54.29056691476958L292.32856291870553,-53.78947250375046zM292.32856291870553,-53.78947250375046L390.79633050043924,-83.36328494368962L218.20071694690677,-85.94392218054877z" style="fill:rgb(240,240,240); fill-opacity: 0.61"></path><path d="M292.3285629187056,-53.78947250375046L292.3285629187056,54.29056691476958" style="fill:none;stroke:rgb(0,0,0);stroke-width:1;stroke-linecap:round"></path><path d="M292.32856291870553,-53.78947250375046L292.32856291870553,54.29056691476958L390.79633050043924,-83.36328494368962z" style="fill:rgb(240,240,240); fill-opacity: 0.61"></path><path d="M178.07984728280343,48.71713813090436L178.07984728280343,33.56953450958293L268.1666915187994,16.926006323743636z" style="fill:rgb(255,187,187); fill-opacity: 0.4"></path><path d="M208.07882556840008,81.75477687871151L131.9797106800216,48.745249513540706L131.9797106800216,-62.208943597364915z" style="fill:rgb(240,240,240); fill-opacity: 0.61"></path><path d="M131.97971068002164,-62.208943597364915L53.20549878228231,-38.549894296444954M131.97971068002164,-62.208943597364915L208.07882556840008,-29.1994162321941" style="fill:none;stroke:rgb(0,0,0);stroke-width:1;stroke-linecap:round"></path><path d="M188.4689925322339,53.22363961800881L178.07984728280343,48.71713813090436L268.1666915187994,16.926006323743636zM178.07984728280343,33.56953450958293L188.4689925322339,38.07603599668738L268.1666915187994,16.926006323743636z" style="fill:rgb(255,187,187); fill-opacity: 0.4"></path><path d="M131.9797106800216,-62.208943597364915L131.9797106800216,48.745249513540706L53.205498782282305,-38.549894296444954z" style="fill:rgb(240,240,240); fill-opacity: 0.61"></path><path d="M188.4689925322339,38.07603599668738L188.4689925322339,53.22363961800881L268.1666915187994,16.926006323743636z" style="fill:rgb(255,187,187); fill-opacity: 0.4"></path><path d="M131.9797106800216,48.745249513540706L53.205498782282305,72.40429881446066L53.205498782282305,-38.549894296444954z" style="fill:rgb(240,240,240); fill-opacity: 0.61"></path><path d="M178.07985002848406,33.56953283819286L178.07985002848406,48.717136732985566M178.07985002848406,48.717136732985566L188.46899546547772,53.223638301449334M178.0798472972511,33.56953429966205L178.0798472972511,48.717138194454755M178.0798472972511,48.717138194454755L99.30563539951177,72.37618749537472M178.0798472972511,48.717138194454755L188.46899273424475,53.22363976291852M53.20549878228231,-38.549894296444954L53.20549878228231,72.40429881446066M53.20549878228231,72.40429881446066L129.30461367066076,105.41382617963146" style="fill:none;stroke:rgb(0,0,0);stroke-width:1;stroke-linecap:round"></path><path d="M188.46899273424475,53.22363976291852L178.0798472972511,48.717138194454755L178.0798472972511,33.56953429966205z" style="fill:rgb(153,221,255); fill-opacity: 0.4"></path><path d="M178.07984728280343,33.56953450958293L178.07984728280343,48.71713813090436L188.4689925322339,53.22363961800881z" style="fill:rgb(255,187,187); fill-opacity: 0.4"></path><path d="M178.07985002848406,33.56953283819286L188.46899546547772,38.076034406656625M178.0798472972511,33.56953429966205L99.30563539951177,57.228583600582006M178.0798472972511,33.56953429966205L188.46899273424475,38.076035868125814" style="fill:none;stroke:rgb(0,0,0);stroke-width:1;stroke-linecap:round"></path><path d="M129.30461367066076,105.41382617963146L53.205498782282305,72.40429881446066L131.9797106800216,48.745249513540706z" style="fill:rgb(240,240,240); fill-opacity: 0.61"></path><path d="M188.46899546547772,53.223638301449334L188.46899546547772,38.076034406656625M109.69478083650543,76.88268906383847L188.46899273424475,53.22363976291852M188.46899273424475,38.076035868125814L188.46899273424475,53.22363976291852" style="fill:none;stroke:rgb(0,0,0);stroke-width:1;stroke-linecap:round"></path><path d="M188.46899273424475,38.07603586812582L188.46899273424475,53.22363976291852L178.0798472972511,33.56953429966205z" style="fill:rgb(153,221,255); fill-opacity: 0.4"></path><path d="M178.07984728280343,33.56953450958293L188.4689925322339,53.22363961800881L188.4689925322339,38.07603599668738z" style="fill:rgb(255,187,187); fill-opacity: 0.4"></path><path d="M109.69478083650543,61.73508516904576L188.46899273424475,38.076035868125814" style="fill:none;stroke:rgb(0,0,0);stroke-width:1;stroke-linecap:round"></path><path d="M208.07882556840008,81.75477687871151L129.30461367066076,105.41382617963146L131.9797106800216,48.745249513540706z" style="fill:rgb(240,240,240); fill-opacity: 0.61"></path><path d="M178.0798472972511,33.56953429966205L178.0798472972511,48.717138194454755L99.30563539951179,57.228583600582006z" style="fill:rgb(153,221,255); fill-opacity: 0.4"></path><path d="M129.30461367066076,105.41382617963146L208.07882556840008,81.75477687871151M208.07882556840008,-29.1994162321941L208.07882556840008,81.75477687871151" style="fill:none;stroke:rgb(0,0,0);stroke-width:1;stroke-linecap:round"></path><path d="M208.07882556840008,-29.1994162321941L208.07882556840008,81.75477687871151L131.9797106800216,-62.208943597364915z" style="fill:rgb(240,240,240); fill-opacity: 0.61"></path><path d="M188.46899273424475,53.22363976291852L109.69478083650544,76.88268906383847L178.0798472972511,48.717138194454755zM188.46899273424475,38.07603586812582L178.0798472972511,33.56953429966205L99.30563539951179,57.228583600582006z" style="fill:rgb(153,221,255); fill-opacity: 0.4"></path><path d="M208.07882556840008,-29.1994162321941L131.9797106800216,-62.208943597364915L53.205498782282305,-38.549894296444954z" style="fill:rgb(240,240,240); fill-opacity: 0.61"></path><path d="M109.69478083650544,76.88268906383847L188.46899273424475,53.22363976291852L188.46899273424475,38.07603586812582zM178.0798472972511,48.717138194454755L99.30563539951179,72.37618749537471L99.30563539951179,57.228583600582006zM109.69478083650544,76.88268906383847L99.30563539951179,72.37618749537471L178.0798472972511,48.717138194454755z" style="fill:rgb(153,221,255); fill-opacity: 0.4"></path><path d="M53.20549878228231,-38.549894296444954L129.30461367066076,-5.540366931274145" style="fill:none;stroke:rgb(0,0,0);stroke-width:1;stroke-linecap:round"></path><path d="M109.69478083650544,61.735085169045774L188.46899273424475,38.07603586812582L99.30563539951179,57.228583600582006zM109.69478083650544,61.735085169045774L109.69478083650544,76.88268906383847L188.46899273424475,38.07603586812582z" style="fill:rgb(153,221,255); fill-opacity: 0.4"></path><path d="M53.205498782282305,-38.549894296444954L53.205498782282305,72.40429881446066L129.30461367066076,-5.540366931274145zM129.30461367066076,105.41382617963146L208.07882556840008,81.75477687871151L208.07882556840008,-29.1994162321941z" style="fill:rgb(240,240,240); fill-opacity: 0.61"></path><path d="M99.30563539951177,57.228583600582006L99.30563539951177,72.37618749537472M99.30563539951177,72.37618749537472L109.69478083650543,76.88268906383847M99.30563539951177,57.228583600582006L109.69478083650543,61.73508516904576M-32.49349416672388,-13.827371902701943L-32.49349416672388,98.47875693829162M-32.49349416672388,98.47875693829162L-111.26770606446321,122.13780623921157M-32.49349416672388,98.47875693829162L44.53286023880225,131.89049316305625M129.30461367066076,-5.540366931274145L208.07882556840008,-29.1994162321941" style="fill:none;stroke:rgb(0,0,0);stroke-width:1;stroke-linecap:round"></path><path d="M99.30563539951179,57.228583600582006L99.30563539951179,72.37618749537471L109.69478083650544,61.735085169045774zM99.30563539951179,72.37618749537471L109.69478083650544,76.88268906383847L109.69478083650544,61.735085169045774z" style="fill:rgb(153,221,255); fill-opacity: 0.4"></path><path d="M109.69478083650543,61.73508516904576L109.69478083650543,76.88268906383847" style="fill:none;stroke:rgb(0,0,0);stroke-width:1;stroke-linecap:round"></path><path d="M53.205498782282305,72.40429881446066L129.30461367066076,105.41382617963146L129.30461367066076,-5.540366931274145zM129.30461367066076,-5.540366931274145L208.07882556840008,-29.1994162321941L53.205498782282305,-38.549894296444954z" style="fill:rgb(240,240,240); fill-opacity: 0.61"></path><path d="M16.378482141734356,55.845335471762965L104.72711690625111,36.409637855851386M16.378482141734356,65.40240911256632L104.72711690625111,36.409637855851386M22.933303011787174,68.24569499310742L104.72711690625111,36.409637855851386M22.933303011787174,58.68862135230406L104.72711690625111,36.409637855851386M129.30461367066076,-5.540366931274145L129.30461367066076,105.41382617963146" style="fill:none;stroke:rgb(0,0,0);stroke-width:1;stroke-linecap:round"></path><path d="M129.30461367066076,-5.540366931274145L129.30461367066076,105.41382617963146L208.07882556840008,-29.1994162321941zM44.53286023880224,131.89049316305622L-32.493494166723885,98.47875693829162L-32.493494166723885,-13.82737190270195z" style="fill:rgb(240,240,240); fill-opacity: 0.61"></path><path d="M-32.49349416672388,-13.827371902701943L-111.26770606446321,9.83167739821801M-32.49349416672388,-13.827371902701943L44.53286023880225,19.584364322062683" style="fill:none;stroke:rgb(0,0,0);stroke-width:1;stroke-linecap:round"></path><path d="M-32.493494166723885,-13.82737190270195L-32.493494166723885,98.47875693829162L-111.2677060644632,9.831677398218003zM-32.493494166723885,98.47875693829162L-111.2677060644632,122.13780623921157L-111.2677060644632,9.831677398218003z" style="fill:rgb(240,240,240); fill-opacity: 0.61"></path><path d="M16.378482359385636,65.40240923431256L16.378482359385636,55.84533541431411L104.72711455680036,36.409638755646995zM22.933303211426892,68.24569510704076L16.378482359385636,65.40240923431256L104.72711455680036,36.409638755646995zM16.378482359385636,55.84533541431411L22.933303211426892,58.688621287042324L104.72711455680036,36.409638755646995z" style="fill:rgb(255,187,187); fill-opacity: 0.4"></path><path d="M-111.26770606446321,9.83167739821801L-111.26770606446321,122.13780623921157M-111.26770606446321,122.13780623921157L-34.24135165893708,155.54954246397622" style="fill:none;stroke:rgb(0,0,0);stroke-width:1;stroke-linecap:round"></path><path d="M22.933303211426892,58.688621287042324L22.933303211426892,68.24569510704076L104.72711455680036,36.409638755646995z" style="fill:rgb(255,187,187); fill-opacity: 0.4"></path><path d="M-34.241351658937084,155.5495424639762L-111.2677060644632,122.13780623921157L-32.493494166723885,98.47875693829162z" style="fill:rgb(240,240,240); fill-opacity: 0.61"></path><path d="M16.378482141734356,55.845335471762965L16.378482141734356,65.40240911256632M16.378482141734356,65.40240911256632L22.933303011787174,68.24569499310742M16.378482458609138,55.84533536477146L16.378482458609138,65.40240921103117M16.378482458609138,65.40240921103117L-62.395729439130186,89.06145851195112M16.378482458609138,65.40240921103117L22.93330332866196,68.24569509157226" style="fill:none;stroke:rgb(0,0,0);stroke-width:1;stroke-linecap:round"></path><path d="M44.53286023880224,131.89049316305622L-34.241351658937084,155.5495424639762L-32.493494166723885,98.47875693829162z" style="fill:rgb(240,240,240); fill-opacity: 0.61"></path><path d="M22.933303328661953,68.24569509157226L16.37848245860913,65.40240921103117L16.37848245860913,55.84533536477145z" style="fill:rgb(153,221,255); fill-opacity: 0.4"></path><path d="M16.378482359385636,55.84533541431411L16.378482359385636,65.40240923431256L22.933303211426892,68.24569510704076z" style="fill:rgb(255,187,187); fill-opacity: 0.4"></path><path d="M16.378482141734356,55.845335471762965L22.933303011787174,58.68862135230406M16.378482458609138,55.84533536477146L-62.395729439130186,79.5043846656914M16.378482458609138,55.84533536477146L22.93330332866196,58.68862124531255M22.933303011787174,68.24569499310742L22.933303011787174,58.68862135230406M-55.840908569077364,91.90474439249222L22.93330332866196,68.24569509157226M22.93330332866196,58.68862124531255L22.93330332866196,68.24569509157226" style="fill:none;stroke:rgb(0,0,0);stroke-width:1;stroke-linecap:round"></path><path d="M22.933303328661953,58.68862124531255L22.933303328661953,68.24569509157226L16.37848245860913,55.84533536477145z" style="fill:rgb(153,221,255); fill-opacity: 0.4"></path><path d="M16.378482359385636,55.84533541431411L22.933303211426892,68.24569510704076L22.933303211426892,58.688621287042324z" style="fill:rgb(255,187,187); fill-opacity: 0.4"></path><path d="M-34.24135165893708,155.54954246397622L44.53286023880225,131.89049316305625M44.53286023880225,19.584364322062683L44.53286023880225,131.89049316305625" style="fill:none;stroke:rgb(0,0,0);stroke-width:1;stroke-linecap:round"></path><path d="M44.53286023880224,19.584364322062676L44.53286023880224,131.89049316305622L-32.493494166723885,-13.82737190270195z" style="fill:rgb(240,240,240); fill-opacity: 0.61"></path><path d="M-55.840908569077364,82.34767054623251L22.93330332866196,58.68862124531255" style="fill:none;stroke:rgb(0,0,0);stroke-width:1;stroke-linecap:round"></path><path d="M44.53286023880224,19.584364322062676L-32.493494166723885,-13.82737190270195L-111.2677060644632,9.831677398218003z" style="fill:rgb(240,240,240); fill-opacity: 0.61"></path><path d="M16.37848245860913,55.84533536477145L16.37848245860913,65.40240921103117L-62.3957294391302,79.50438466569139zM22.933303328661953,68.24569509157226L-55.84090856907738,91.90474439249222L16.37848245860913,65.40240921103117zM22.933303328661953,58.68862124531255L16.37848245860913,55.84533536477145L-62.3957294391302,79.50438466569139z" style="fill:rgb(153,221,255); fill-opacity: 0.4"></path><path d="M-111.26770606446321,9.83167739821801L-34.24135165893708,43.24341362298264" style="fill:none;stroke:rgb(0,0,0);stroke-width:1;stroke-linecap:round"></path><path d="M-55.84090856907738,91.90474439249222L22.933303328661953,68.24569509157226L22.933303328661953,58.68862124531255zM16.37848245860913,65.40240921103117L-62.3957294391302,89.06145851195112L-62.3957294391302,79.50438466569139z" style="fill:rgb(153,221,255); fill-opacity: 0.4"></path><path d="M-111.2677060644632,9.831677398218003L-111.2677060644632,122.13780623921157L-34.241351658937084,43.24341362298263z" style="fill:rgb(240,240,240); fill-opacity: 0.61"></path><path d="M-55.84090856907738,91.90474439249222L-62.3957294391302,89.06145851195112L16.37848245860913,65.40240921103117z" style="fill:rgb(153,221,255); fill-opacity: 0.4"></path><path d="M-34.241351658937084,155.5495424639762L44.53286023880224,131.89049316305622L44.53286023880224,19.584364322062676z" style="fill:rgb(240,240,240); fill-opacity: 0.61"></path><path d="M-195.95849959945116,33.34738361513698L-195.95849959945116,148.2079957742111M-195.95849959945116,148.2079957742111L-198.7996787130142,149.06131559933092M-195.95849959945116,148.2079957742111L-117.18012560770937,182.37970586411632" style="fill:none;stroke:rgb(0,0,0);stroke-width:1;stroke-linecap:round"></path><path d="M-55.84090856907738,82.34767054623251L22.933303328661953,58.68862124531255L-62.3957294391302,79.50438466569139zM-55.84090856907738,82.34767054623251L-55.84090856907738,91.90474439249222L22.933303328661953,58.68862124531255z" style="fill:rgb(153,221,255); fill-opacity: 0.4"></path><path d="M-198.7996787130142,34.20070344025681L-198.7996787130142,149.06131559933092M-198.7996787130142,149.06131559933092L-120.0213047212724,183.23302568923614M-34.24135165893708,43.24341362298264L44.53286023880225,19.584364322062683" style="fill:none;stroke:rgb(0,0,0);stroke-width:1;stroke-linecap:round"></path><path d="M-111.2677060644632,122.13780623921157L-34.241351658937084,155.5495424639762L-34.241351658937084,43.24341362298263z" style="fill:rgb(240,240,240); fill-opacity: 0.61"></path><path d="M-62.395729439130186,79.5043846656914L-62.395729439130186,89.06145851195112M-62.395729439130186,89.06145851195112L-55.840908569077364,91.90474439249222M-62.395729439130186,79.5043846656914L-55.840908569077364,82.34767054623251" style="fill:none;stroke:rgb(0,0,0);stroke-width:1;stroke-linecap:round"></path><path d="M-195.95849959945116,148.2079957742111L-198.7996787130142,149.06131559933092L-198.7996787130142,34.20070344025681zM-34.241351658937084,43.24341362298263L44.53286023880224,19.584364322062676L-111.2677060644632,9.831677398218003z" style="fill:rgb(240,240,240); fill-opacity: 0.61"></path><path d="M-62.3957294391302,79.50438466569139L-62.3957294391302,89.06145851195112L-55.84090856907738,82.34767054623251z" style="fill:rgb(153,221,255); fill-opacity: 0.4"></path><path d="M-159.5498424713158,66.70936847554268L-69.20073050142221,51.64302654705963M-159.5498424713158,81.8569707266845L-69.20073050142221,51.64302654705963M-149.160697316151,86.36347217289931L-69.20073050142221,51.64302654705963M-149.160697316151,71.2158699217575L-69.20073050142221,51.64302654705963" style="fill:none;stroke:rgb(0,0,0);stroke-width:1;stroke-linecap:round"></path><path d="M-62.3957294391302,89.06145851195112L-55.84090856907738,91.90474439249222L-55.84090856907738,82.34767054623251z" style="fill:rgb(153,221,255); fill-opacity: 0.4"></path><path d="M-55.840908569077364,82.34767054623251L-55.840908569077364,91.90474439249222M-34.24135165893708,43.24341362298264L-34.24135165893708,155.54954246397622" style="fill:none;stroke:rgb(0,0,0);stroke-width:1;stroke-linecap:round"></path><path d="M-195.95849959945116,33.34738361513698L-195.95849959945116,148.2079957742111L-198.7996787130142,34.20070344025681zM-120.02130472127243,183.23302568923614L-198.7996787130142,149.06131559933092L-195.95849959945116,148.2079957742111zM-34.241351658937084,43.24341362298263L-34.241351658937084,155.5495424639762L44.53286023880224,19.584364322062676zM-117.18012560770939,182.37970586411632L-195.95849959945116,148.2079957742111L-195.95849959945116,33.34738361513698z" style="fill:rgb(240,240,240); fill-opacity: 0.61"></path><path d="M-195.95849959945116,33.34738361513698L-198.7996787130142,34.20070344025681M-195.95849959945116,33.34738361513698L-117.18012560770937,67.51909370504221M-198.7996787130142,34.20070344025681L-120.0213047212724,68.37241353016204" style="fill:none;stroke:rgb(0,0,0);stroke-width:1;stroke-linecap:round"></path><path d="M-159.5498449835469,81.85697147588674L-159.5498449835469,66.70936785456531L-69.20073283932622,51.64302737578589z" style="fill:rgb(255,187,187); fill-opacity: 0.4"></path><path d="M-117.18012560770939,182.37970586411632L-120.02130472127243,183.23302568923614L-195.95849959945116,148.2079957742111z" style="fill:rgb(240,240,240); fill-opacity: 0.61"></path><path d="M-149.16069973411643,86.3634729629912L-159.5498449835469,81.85697147588674L-69.20073283932622,51.64302737578589z" style="fill:rgb(255,187,187); fill-opacity: 0.4"></path><path d="M-198.7996787130142,34.20070344025681L-198.7996787130142,149.06131559933092L-120.02130472127243,68.37241353016204z" style="fill:rgb(240,240,240); fill-opacity: 0.61"></path><path d="M-159.5498449835469,66.70936785456531L-149.16069973411643,71.21586934166976L-69.20073283932622,51.64302737578589zM-149.16069973411643,71.21586934166976L-149.16069973411643,86.3634729629912L-69.20073283932622,51.64302737578589z" style="fill:rgb(255,187,187); fill-opacity: 0.4"></path><path d="M-158.129255520547,66.28270776459009L-158.129255520547,81.43031165938281M-158.129255520547,81.43031165938281L-160.97043463411,82.28363148450264M-158.129255520547,81.43031165938281L-147.74011008355333,85.93681322784656" style="fill:none;stroke:rgb(0,0,0);stroke-width:1;stroke-linecap:round"></path><path d="M-117.18012560770939,67.51909370504221L-195.95849959945116,33.34738361513698L-198.7996787130142,34.20070344025681z" style="fill:rgb(240,240,240); fill-opacity: 0.61"></path><path d="M-159.5498424713158,66.70936847554268L-159.5498424713158,81.8569707266845M-159.5498424713158,81.8569707266845L-149.160697316151,86.36347217289931" style="fill:none;stroke:rgb(0,0,0);stroke-width:1;stroke-linecap:round"></path><path d="M-198.7996787130142,149.06131559933092L-120.02130472127243,183.23302568923614L-120.02130472127243,68.37241353016204z" style="fill:rgb(240,240,240); fill-opacity: 0.61"></path><path d="M-160.97043463411,67.13602758970994L-160.97043463411,82.28363148450264M-160.97043463411,82.28363148450264L-150.58128919711635,86.79013305296641" style="fill:none;stroke:rgb(0,0,0);stroke-width:1;stroke-linecap:round"></path><path d="M-158.12925552054702,81.43031165938281L-160.97043463411003,82.28363148450264L-160.97043463411003,67.13602758970994zM-158.12925552054702,66.2827077645901L-158.12925552054702,81.43031165938281L-160.97043463411003,67.13602758970994zM-150.58128919711635,86.79013305296641L-160.97043463411003,82.28363148450264L-158.12925552054702,81.43031165938281zM-147.74011008355333,85.93681322784657L-158.12925552054702,81.43031165938281L-158.12925552054702,66.2827077645901z" style="fill:rgb(153,221,255); fill-opacity: 0.4"></path><path d="M-158.129255520547,66.28270776459009L-160.97043463411,67.13602758970994M-158.129255520547,66.28270776459009L-147.74011008355333,70.78920933305386" style="fill:none;stroke:rgb(0,0,0);stroke-width:1;stroke-linecap:round"></path><path d="M-159.5498449835469,66.70936785456531L-159.5498449835469,81.85697147588674L-149.16069973411643,86.3634729629912z" style="fill:rgb(255,187,187); fill-opacity: 0.4"></path><path d="M-159.5498424713158,66.70936847554268L-149.160697316151,71.2158699217575M-160.97043463411,67.13602758970994L-150.58128919711635,71.64252915817369" style="fill:none;stroke:rgb(0,0,0);stroke-width:1;stroke-linecap:round"></path><path d="M-147.74011008355333,85.93681322784657L-150.58128919711635,86.79013305296641L-158.12925552054702,81.43031165938281zM-160.97043463411003,67.13602758970994L-160.97043463411003,82.28363148450264L-150.58128919711635,71.64252915817369zM-147.74011008355333,70.78920933305386L-158.12925552054702,66.2827077645901L-160.97043463411003,67.13602758970994z" style="fill:rgb(153,221,255); fill-opacity: 0.4"></path><path d="M-150.58128919711635,86.79013305296641L-147.74011008355333,85.93681322784656M-147.74011008355333,70.78920933305386L-147.74011008355333,85.93681322784656" style="fill:none;stroke:rgb(0,0,0);stroke-width:1;stroke-linecap:round"></path><path d="M-147.74011008355333,70.78920933305386L-147.74011008355333,85.93681322784657L-158.12925552054702,66.2827077645901zM-160.97043463411003,82.28363148450264L-150.58128919711635,86.79013305296641L-150.58128919711635,71.64252915817369z" style="fill:rgb(153,221,255); fill-opacity: 0.4"></path><path d="M-149.160697316151,86.36347217289931L-149.160697316151,71.2158699217575" style="fill:none;stroke:rgb(0,0,0);stroke-width:1;stroke-linecap:round"></path><path d="M-159.5498449835469,66.70936785456531L-149.16069973411643,86.3634729629912L-149.16069973411643,71.21586934166976z" style="fill:rgb(255,187,187); fill-opacity: 0.4"></path><path d="M-120.0213047212724,183.23302568923614L-117.18012560770937,182.37970586411632M-117.18012560770937,67.51909370504221L-117.18012560770937,182.37970586411632M-150.58128919711635,71.64252915817369L-150.58128919711635,86.79013305296641" style="fill:none;stroke:rgb(0,0,0);stroke-width:1;stroke-linecap:round"></path><path d="M-117.18012560770939,67.51909370504221L-117.18012560770939,182.37970586411632L-195.95849959945116,33.34738361513698z" style="fill:rgb(240,240,240); fill-opacity: 0.61"></path><path d="M-150.58128919711635,86.79013305296641L-147.74011008355333,85.93681322784657L-147.74011008355333,70.78920933305386zM-150.58128919711635,71.64252915817369L-147.74011008355333,70.78920933305386L-160.97043463411003,67.13602758970994z" style="fill:rgb(153,221,255); fill-opacity: 0.4"></path><path d="M-120.0213047212724,68.37241353016204L-120.0213047212724,183.23302568923614" style="fill:none;stroke:rgb(0,0,0);stroke-width:1;stroke-linecap:round"></path><path d="M-150.58128919711635,71.64252915817369L-150.58128919711635,86.79013305296641L-147.74011008355333,70.78920933305386z" style="fill:rgb(153,221,255); fill-opacity: 0.4"></path><path d="M-150.58128919711635,71.64252915817369L-147.74011008355333,70.78920933305386" style="fill:none;stroke:rgb(0,0,0);stroke-width:1;stroke-linecap:round"></path><path d="M-120.02130472127243,183.23302568923614L-117.18012560770939,182.37970586411632L-117.18012560770939,67.51909370504221zM-120.02130472127243,68.37241353016204L-117.18012560770939,67.51909370504221L-198.7996787130142,34.20070344025681zM-120.02130472127243,68.37241353016204L-120.02130472127243,183.23302568923614L-117.18012560770939,67.51909370504221z" style="fill:rgb(240,240,240); fill-opacity: 0.61"></path><path d="M-120.0213047212724,68.37241353016204L-117.18012560770937,67.51909370504221" style="fill:none;stroke:rgb(0,0,0);stroke-width:1;stroke-linecap:round"></path></svg>